<svg xmlns="http://www.w3.org/2000/svg" viewBox="0 0 512 512">
  <defs>
    <linearGradient id="koraBg" x1="0%" y1="0%" x2="100%" y2="100%">
      <stop offset="0%" stop-color="#242424"/>
      <stop offset="100%" stop-color="#0F0F10"/>
    </linearGradient>
  </defs>
  <!-- Background with squid-like soft squircle -->
  <rect x="24" y="24" width="464" height="464" rx="112" fill="url(#koraBg)"/>
  
  <!-- Outer subtle glowing ring -->
  <rect x="24" y="24" width="464" height="464" rx="112" fill="none" stroke="#ECE8D4" stroke-opacity="0.08" stroke-width="4"/>

  <!-- Centered Logo Icon (original viewBox 272.72 x 323.58 scaled & centered) -->
  <g transform="translate(138, 110) scale(0.8653)">
    <path fill="#F7F3E3" d="M271.51,39.63l-42.07,52.3c-17.41,21.62-35,43.1-52.11,64.95A37.6,37.6,0,0,1,155.49,171a247.39,247.39,0,0,0-32.92,10c9.08,1.27,18.13,2.88,27.25,3.73,9.34.87,16.1,4.44,22.23,12.22,32.89,41.77,66.48,83,100.67,125.46-3.19.45-5.23,1-7.27,1-24.79,0-49.59.29-74.38-.25-4.21-.09-9.63-2.53-12.31-5.71-23.17-27.58-45.83-55.57-68.66-83.43-2.88-3.51-5.88-6.93-9.41-11.08-9.07,6.79-17.8,12.7-25.66,19.6-2.44,2.13-3.47,6.92-3.53,10.52-.35,19.83-.2,39.67-.22,59.51v10.29H0V9.71H71V144.39l2,.8c1.45-2.17,3-4.26,4.32-6.51,14.8-25.37,29.18-51,44.58-76A55.77,55.77,0,0,1,139.68,44.8c25-15.18,50.74-29.26,78-44.8,0,13.22.61,24.64-.44,35.91-.26,2.78-5.91,5.06-11.36,9.36V20.68c-23.31,13.65-44.83,26.22-66.3,38.9a10.59,10.59,0,0,0-3.32,3.64c-20.51,33.72-41,67.47-59.65,102.47Q99.29,138,122,110.23c3.14-3.83,7-7.23,9.4-11.49,12.19-21.85,31.95-31.34,55.31-37,25.89-6.34,51.27-14.81,76.88-22.32,2.14-.63,4.35-1,6.52-1.55Z"/>
  </g>
</svg>
