<svg xmlns="http://www.w3.org/2000/svg" width="600" height="900" viewBox="0 0 600 900" role="img" aria-label="Getting started with Kora Cover">
  <defs>
    <!-- Rich Dark Warm Charcoal Canvas Background -->
    <radialGradient id="bgGlow" cx="50%" cy="45%" r="65%">
      <stop offset="0%" stop-color="#1E1C1A" />
      <stop offset="70%" stop-color="#121110" />
      <stop offset="100%" stop-color="#0B0B0A" />
    </radialGradient>
    
    <!-- Warm Gold Gradient -->
    <linearGradient id="goldGradient" x1="0%" y1="0%" x2="100%" y2="100%">
      <stop offset="0%" stop-color="#FAF4E6" />
      <stop offset="50%" stop-color="#E5C78B" />
      <stop offset="100%" stop-color="#C29D53" />
    </linearGradient>

    <!-- Logo Warm Gold Shine -->
    <linearGradient id="logoShine" x1="0%" y1="0%" x2="100%" y2="100%">
      <stop offset="0%" stop-color="#FFFFFF" />
      <stop offset="40%" stop-color="#F2E3C6" />
      <stop offset="100%" stop-color="#D9B15B" />
    </linearGradient>
  </defs>

  <!-- Background Canvas -->
  <rect width="600" height="900" fill="url(#bgGlow)" />

  <!-- Simple Subtle Inset Border -->
  <rect x="28" y="28" width="544" height="844" rx="12" fill="none" stroke="url(#goldGradient)" stroke-width="1.5" stroke-opacity="0.3" />

  <!-- KORA LOGO MARK (Centered, scaled cleanly) -->
  <!-- Original bounds 272x324. Scaled 0.65x -> ~177x210 -->
  <g transform="translate(211, 180) scale(0.65)">
    <!-- Soft shadow -->
    <path fill="#000000" opacity="0.45" transform="translate(0, 8)" d="M271.51,39.63l-42.07,52.3c-17.41,21.62-35,43.1-52.11,64.95A37.6,37.6,0,0,1,155.49,171a247.39,247.39,0,0,0-32.92,10c9.08,1.27,18.13,2.88,27.25,3.73,9.34.87,16.1,4.44,22.23,12.22,32.89,41.77,66.48,83,100.67,125.46-3.19.45-5.23,1-7.27,1-24.79,0-49.59.29-74.38-.25-4.21-.09-9.63-2.53-12.31-5.71-23.17-27.58-45.83-55.57-68.66-83.43-2.88-3.51-5.88-6.93-9.41-11.08-9.07,6.79-17.8,12.7-25.66,19.6-2.44,2.13-3.47,6.92-3.53,10.52-.35,19.83-.2,39.67-.22,59.51v10.29H0V9.71H71V144.39l2,.8c1.45-2.17,3-4.26,4.32-6.51,14.8-25.37,29.18-51,44.58-76A55.77,55.77,0,0,1,139.68,44.8c25-15.18,50.74-29.26,78-44.8,0,13.22.61,24.64-.44,35.91-.26,2.78-5.91,5.06-11.36,9.36V20.68c-23.31,13.65-44.83,26.22-66.3,38.9a10.59,10.59,0,0,0-3.32,3.64c-20.51,33.72-41,67.47-59.65,102.47Q99.29,138,122,110.23c3.14-3.83,7-7.23,9.4-11.49,12.19-21.85,31.95-31.34,55.31-37,25.89-6.34,51.27-14.81,76.88-22.32,2.14-.63,4.35-1,6.52-1.55Z"/>
    <!-- Gold Logo -->
    <path fill="url(#logoShine)" d="M271.51,39.63l-42.07,52.3c-17.41,21.62-35,43.1-52.11,64.95A37.6,37.6,0,0,1,155.49,171a247.39,247.39,0,0,0-32.92,10c9.08,1.27,18.13,2.88,27.25,3.73,9.34.87,16.1,4.44,22.23,12.22,32.89,41.77,66.48,83,100.67,125.46-3.19.45-5.23,1-7.27,1-24.79,0-49.59.29-74.38-.25-4.21-.09-9.63-2.53-12.31-5.71-23.17-27.58-45.83-55.57-68.66-83.43-2.88-3.51-5.88-6.93-9.41-11.08-9.07,6.79-17.8,12.7-25.66,19.6-2.44,2.13-3.47,6.92-3.53,10.52-.35,19.83-.2,39.67-.22,59.51v10.29H0V9.71H71V144.39l2,.8c1.45-2.17,3-4.26,4.32-6.51,14.8-25.37,29.18-51,44.58-76A55.77,55.77,0,0,1,139.68,44.8c25-15.18,50.74-29.26,78-44.8,0,13.22.61,24.64-.44,35.91-.26,2.78-5.91,5.06-11.36,9.36V20.68c-23.31,13.65-44.83,26.22-66.3,38.9a10.59,10.59,0,0,0-3.32,3.64c-20.51,33.72-41,67.47-59.65,102.47Q99.29,138,122,110.23c3.14-3.83,7-7.23,9.4-11.49,12.19-21.85,31.95-31.34,55.31-37,25.89-6.34,51.27-14.81,76.88-22.32,2.14-.63,4.35-1,6.52-1.55Z"/>
  </g>

  <!-- Elegant Clean Divider -->
  <line x1="260" y1="445" x2="340" y2="445" stroke="url(#goldGradient)" stroke-width="1" stroke-opacity="0.5" />

  <!-- Title Text -->
  <text x="300" y="525" text-anchor="middle" fill="#FAF5EA" font-family="Georgia, 'Times New Roman', serif" font-size="46" font-weight="700" letter-spacing="0.5">Getting Started</text>
  <text x="300" y="580" text-anchor="middle" fill="#E5C78B" font-family="Georgia, 'Times New Roman', serif" font-style="italic" font-size="32" letter-spacing="1">with Kora</text>

  <!-- Clean Subtitle -->
  <text x="300" y="665" text-anchor="middle" fill="#A8A092" font-family="system-ui, -apple-system, sans-serif" font-size="12" font-weight="600" letter-spacing="4">USER GUIDE &amp; WALKTHROUGH</text>

</svg>
