<svg xmlns="http://www.w3.org/2000/svg" width="600" height="900" viewBox="0 0 600 900" role="img" aria-label="Getting started with Kora Cover">
  <defs>
    <radialGradient id="bgGlow" cx="50%" cy="45%" r="65%">
      <stop offset="0%" stop-color="#1E1C1A" />
      <stop offset="70%" stop-color="#121110" />
      <stop offset="100%" stop-color="#0B0B0A" />
    </radialGradient>
    <linearGradient id="goldGradient" x1="0%" y1="0%" x2="100%" y2="100%">
      <stop offset="0%" stop-color="#FAF4E6" />
      <stop offset="50%" stop-color="#E5C78B" />
      <stop offset="100%" stop-color="#C29D53" />
    </linearGradient>
    <linearGradient id="logoShine" x1="0%" y1="0%" x2="100%" y2="100%">
      <stop offset="0%" stop-color="#FFFFFF" />
      <stop offset="40%" stop-color="#F2E3C6" />
      <stop offset="100%" stop-color="#D9B15B" />
    </linearGradient>
  </defs>

  <rect width="600" height="900" fill="url(#bgGlow)" />
  <rect x="28" y="28" width="544" height="844" rx="12" fill="none" stroke="url(#goldGradient)" stroke-width="1.5" stroke-opacity="0.3" />

  <!-- Kora icon mark -->
  <g transform="translate(221, 145) scale(0.58)">
    <path fill="#000000" opacity="0.4" transform="translate(0, 8)" d="M271.51,39.63l-42.07,52.3c-17.41,21.62-35,43.1-52.11,64.95A37.6,37.6,0,0,1,155.49,171a247.39,247.39,0,0,0-32.92,10c9.08,1.27,18.13,2.88,27.25,3.73,9.34.87,16.1,4.44,22.23,12.22,32.89,41.77,66.48,83,100.67,125.46-3.19.45-5.23,1-7.27,1-24.79,0-49.59.29-74.38-.25-4.21-.09-9.63-2.53-12.31-5.71-23.17-27.58-45.83-55.57-68.66-83.43-2.88-3.51-5.88-6.93-9.41-11.08-9.07,6.79-17.8,12.7-25.66,19.6-2.44,2.13-3.47,6.92-3.53,10.52-.35,19.83-.2,39.67-.22,59.51v10.29H0V9.71H71V144.39l2,.8c1.45-2.17,3-4.26,4.32-6.51,14.8-25.37,29.18-51,44.58-76A55.77,55.77,0,0,1,139.68,44.8c25-15.18,50.74-29.26,78-44.8,0,13.22.61,24.64-.44,35.91-.26,2.78-5.91,5.06-11.36,9.36V20.68c-23.31,13.65-44.83,26.22-66.3,38.9a10.59,10.59,0,0,0-3.32,3.64c-20.51,33.72-41,67.47-59.65,102.47Q99.29,138,122,110.23c3.14-3.83,7-7.23,9.4-11.49,12.19-21.85,31.95-31.34,55.31-37,25.89-6.34,51.27-14.81,76.88-22.32,2.14-.63,4.35-1,6.52-1.55Z"/>
    <path fill="url(#logoShine)" d="M271.51,39.63l-42.07,52.3c-17.41,21.62-35,43.1-52.11,64.95A37.6,37.6,0,0,1,155.49,171a247.39,247.39,0,0,0-32.92,10c9.08,1.27,18.13,2.88,27.25,3.73,9.34.87,16.1,4.44,22.23,12.22,32.89,41.77,66.48,83,100.67,125.46-3.19.45-5.23,1-7.27,1-24.79,0-49.59.29-74.38-.25-4.21-.09-9.63-2.53-12.31-5.71-23.17-27.58-45.83-55.57-68.66-83.43-2.88-3.51-5.88-6.93-9.41-11.08-9.07,6.79-17.8,12.7-25.66,19.6-2.44,2.13-3.47,6.92-3.53,10.52-.35,19.83-.2,39.67-.22,59.51v10.29H0V9.71H71V144.39l2,.8c1.45-2.17,3-4.26,4.32-6.51,14.8-25.37,29.18-51,44.58-76A55.77,55.77,0,0,1,139.68,44.8c25-15.18,50.74-29.26,78-44.8,0,13.22.61,24.64-.44,35.91-.26,2.78-5.91,5.06-11.36,9.36V20.68c-23.31,13.65-44.83,26.22-66.3,38.9a10.59,10.59,0,0,0-3.32,3.64c-20.51,33.72-41,67.47-59.65,102.47Q99.29,138,122,110.23c3.14-3.83,7-7.23,9.4-11.49,12.19-21.85,31.95-31.34,55.31-37,25.89-6.34,51.27-14.81,76.88-22.32,2.14-.63,4.35-1,6.52-1.55Z"/>
  </g>

  <!-- Kora wordmark logo -->
  <g transform="translate(186, 370) scale(0.78)" fill="url(#logoShine)">
    <path d="M24.18,0V6.78c0,29.14,0,58.28-.07,87.42,0,6,.3,11.44,7.51,13.29.7.19,1.09,1.61,2,3.05H.64l-.64-1c1.19-1,2.24-2.37,3.61-2.9,3.94-1.53,5.62-4.17,5.61-8.4q-.13-40,0-79.93c0-4.73-1.93-7.46-6.26-9C1.9,9,1.15,7.79.27,7,1.2,6.27,2,5.18,3.09,4.92,9.84,3.24,16.64,1.74,24.18,0Z"/>
    <path d="M78.32,110.77c-7.1,0-14.2.08-21.29-.1a4.78,4.78,0,0,1-3-2Q40.66,90.3,27.46,71.89c5.26-5.49,10.61-11.09,16-16.65,2.08-2.15,4.31-4.16,6.37-6.33,3.77-4,3.34-5.72-1.66-8.06a4.92,4.92,0,0,1-2.57-3.51H73.37l.76,1.25C70.3,40.71,66.22,42.48,62.71,45a109.36,109.36,0,0,0-11.2,9.9C48.05,58.27,44.85,61.86,41,66,53.4,80.35,61.76,98.66,79,109.66Z"/>
    <path d="M151.77,74.1h0a45.46,45.46,0,0,0-3.51-17.51,33.2,33.2,0,0,0-4.87-8.34l-.23-.28c-.23-.29-.47-.58-.71-.86a29.45,29.45,0,0,0-5.49-5,37.39,37.39,0,0,0-43.9,0,29.71,29.71,0,0,0-5.48,5c-.25.28-.48.57-.72.86l-.22.28a33.2,33.2,0,0,0-4.87,8.34,45.27,45.27,0,0,0-3.51,17.51h0A42.74,42.74,0,0,0,82.47,93a32.76,32.76,0,0,0,15.32,15.69,37.5,37.5,0,0,0,15.86,4.09h.07l1.29,0,1.3,0h.07a37.5,37.5,0,0,0,15.86-4.09A32.73,32.73,0,0,0,147.55,93,42.61,42.61,0,0,0,151.77,74.1ZM133,90.13A66.71,66.71,0,0,1,129.34,99a15.55,15.55,0,0,1-14.18,9h-.29a15.56,15.56,0,0,1-14.19-9A66.63,66.63,0,0,1,97,90.13c-.9-3.49-1.64-7-2.42-10.56a51.39,51.39,0,0,1-.4-8.67c1.25-8.9,3.25-16.72,6.32-21.79,3.52-5.81,9-8.92,14.48-9.21,5.47.29,11,3.4,14.49,9.21,3.07,5.07,5.06,12.89,6.31,21.79a51.39,51.39,0,0,1-.4,8.67C134.63,83.1,133.89,86.64,133,90.13Z"/>
    <path d="M193.44,110.51H159.7l-.57-1c1.07-.9,2-2.13,3.25-2.62,4.54-1.79,6-5,5.94-9.79-.2-14-.28-28,0-42,.13-5.65-1.58-9.3-7.11-11a3.26,3.26,0,0,1-1.77-2c-.13-.38.8-1.52,1.4-1.67,7-1.75,14.08-3.37,21.77-5.18V51.06l1.11.4,2.54-4.36c3.51-6,8.15-10.58,15.32-11.7,7.35-1.15,12.17,3.38,10.85,10-1,5.16-4.11,6.91-9.13,5.17-12.43-4.32-19.44.57-19.59,13.8-.12,10.66.14,21.33-.21,32-.19,5.71,1.76,9.21,7.35,10.72,1.23.33,2.23,1.52,3.34,2.31Z"/>
    <path d="M287.6,104.25c-1.64,4.59-5.45,6.69-10,7.53-8.61,1.57-11.14-.13-16.94-11-4.9,6.39-10.94,10.55-19,11.62-9.95,1.31-19.48-3.36-22.59-11.64-3.59-9.57-.58-19.55,9.17-24.2,9.2-4.38,19.27-7,29.1-10,3-.9,4.36-1.9,3.94-5-.58-4.27-.66-8.66-1.78-12.78-1.63-6-6.3-9-12.29-8.95s-9.29,3-11.31,9.37c-1,3-.55,7-5,7.73-3.67.56-7.22.11-9-3.68s-.78-7.18,2.33-9.9c6.48-5.68,14.43-7.47,22.66-7.93a48.52,48.52,0,0,1,12.88,1.12c10.13,2.22,15.8,8.93,16.21,19.42.43,11,.28,22,.38,33,0,1.66,0,3.33,0,5C276.63,102.86,278.61,104.64,287.6,104.25Zm-26.6-34c-8.44,2.41-16.47,4.43-22.9,10.05-4.55,4-5.81,10.76-3.44,16.45a11.76,11.76,0,0,0,12,7c5.67-.42,13.76-5.58,14.15-10.21C261.46,86,261,78.4,261,70.24Z"/>
  </g>

  <line x1="260" y1="500" x2="340" y2="500" stroke="url(#goldGradient)" stroke-width="1" stroke-opacity="0.5" />

  <text x="300" y="560" text-anchor="middle" fill="#FAF5EA" font-family="Georgia, 'Times New Roman', serif" font-size="42" font-weight="700" letter-spacing="0.5">Getting Started</text>
  <text x="300" y="608" text-anchor="middle" fill="#E5C78B" font-family="Georgia, 'Times New Roman', serif" font-style="italic" font-size="28" letter-spacing="1">with Kora</text>
  <text x="300" y="680" text-anchor="middle" fill="#A8A092" font-family="system-ui, -apple-system, sans-serif" font-size="12" font-weight="600" letter-spacing="4">USER GUIDE &amp; WALKTHROUGH</text>
</svg>
